<mxfile host="app.diagrams.net" modified="2023-09-29T05:01:14.156Z" agent="Mozilla/5.0 (Windows NT 10.0; Win64; x64) AppleWebKit/537.36 (KHTML, like Gecko) Chrome/117.0.0.0 Safari/537.36" etag="Cm6QBWaNpQ4YEAlbLcg8" version="22.0.0" type="github">
  <diagram name="Trang-1" id="djwpGCrSS72LMlaI2LG7">
    <mxGraphModel dx="2327" dy="830" grid="1" gridSize="10" guides="1" tooltips="1" connect="1" arrows="1" fold="1" page="1" pageScale="1" pageWidth="827" pageHeight="1169" math="0" shadow="0">
      <root>
        <mxCell id="0" />
        <mxCell id="1" parent="0" />
        <mxCell id="iHbo7Aoe1ZnRzZ0becoV-3" style="edgeStyle=orthogonalEdgeStyle;rounded=0;orthogonalLoop=1;jettySize=auto;html=1;exitX=0.5;exitY=1;exitDx=0;exitDy=0;entryX=0.5;entryY=0;entryDx=0;entryDy=0;" edge="1" parent="1" source="iHbo7Aoe1ZnRzZ0becoV-4">
          <mxGeometry relative="1" as="geometry">
            <mxPoint x="320" y="310" as="targetPoint" />
          </mxGeometry>
        </mxCell>
        <mxCell id="iHbo7Aoe1ZnRzZ0becoV-2" value="begin" style="ellipse;whiteSpace=wrap;html=1;" vertex="1" parent="1">
          <mxGeometry x="260" y="30" width="120" height="110" as="geometry" />
        </mxCell>
        <mxCell id="iHbo7Aoe1ZnRzZ0becoV-5" value="" style="edgeStyle=orthogonalEdgeStyle;rounded=0;orthogonalLoop=1;jettySize=auto;html=1;exitX=0.5;exitY=1;exitDx=0;exitDy=0;entryX=0.5;entryY=0;entryDx=0;entryDy=0;" edge="1" parent="1" source="iHbo7Aoe1ZnRzZ0becoV-2" target="iHbo7Aoe1ZnRzZ0becoV-4">
          <mxGeometry relative="1" as="geometry">
            <mxPoint x="320" y="140" as="sourcePoint" />
            <mxPoint x="310" y="350" as="targetPoint" />
          </mxGeometry>
        </mxCell>
        <mxCell id="iHbo7Aoe1ZnRzZ0becoV-4" value="nhập a,b,c" style="shape=parallelogram;perimeter=parallelogramPerimeter;whiteSpace=wrap;html=1;fixedSize=1;" vertex="1" parent="1">
          <mxGeometry x="260" y="190" width="120" height="60" as="geometry" />
        </mxCell>
        <mxCell id="iHbo7Aoe1ZnRzZ0becoV-12" value="" style="edgeStyle=orthogonalEdgeStyle;rounded=0;orthogonalLoop=1;jettySize=auto;html=1;" edge="1" parent="1" source="iHbo7Aoe1ZnRzZ0becoV-6" target="iHbo7Aoe1ZnRzZ0becoV-10">
          <mxGeometry relative="1" as="geometry" />
        </mxCell>
        <mxCell id="iHbo7Aoe1ZnRzZ0becoV-15" value="" style="edgeStyle=orthogonalEdgeStyle;rounded=0;orthogonalLoop=1;jettySize=auto;html=1;" edge="1" parent="1" source="iHbo7Aoe1ZnRzZ0becoV-6" target="iHbo7Aoe1ZnRzZ0becoV-14">
          <mxGeometry relative="1" as="geometry" />
        </mxCell>
        <mxCell id="iHbo7Aoe1ZnRzZ0becoV-6" value="a+b&amp;gt;c &amp;amp;&amp;amp;&lt;br&gt;&amp;nbsp;b+c&amp;gt;a&amp;amp;&amp;amp;&lt;br&gt;a+c&amp;gt;b" style="rhombus;whiteSpace=wrap;html=1;" vertex="1" parent="1">
          <mxGeometry x="165" y="310" width="310" height="80" as="geometry" />
        </mxCell>
        <mxCell id="iHbo7Aoe1ZnRzZ0becoV-31" style="edgeStyle=orthogonalEdgeStyle;rounded=0;orthogonalLoop=1;jettySize=auto;html=1;entryX=0.5;entryY=0;entryDx=0;entryDy=0;" edge="1" parent="1" source="iHbo7Aoe1ZnRzZ0becoV-10" target="iHbo7Aoe1ZnRzZ0becoV-27">
          <mxGeometry relative="1" as="geometry" />
        </mxCell>
        <mxCell id="iHbo7Aoe1ZnRzZ0becoV-10" value="nó là 1 tam giác" style="shape=parallelogram;perimeter=parallelogramPerimeter;whiteSpace=wrap;html=1;fixedSize=1;" vertex="1" parent="1">
          <mxGeometry x="530" y="320" width="240" height="60" as="geometry" />
        </mxCell>
        <mxCell id="iHbo7Aoe1ZnRzZ0becoV-13" value="true&lt;br&gt;" style="text;html=1;align=center;verticalAlign=middle;resizable=0;points=[];autosize=1;strokeColor=none;fillColor=none;" vertex="1" parent="1">
          <mxGeometry x="480" y="310" width="40" height="30" as="geometry" />
        </mxCell>
        <mxCell id="iHbo7Aoe1ZnRzZ0becoV-17" value="" style="edgeStyle=orthogonalEdgeStyle;rounded=0;orthogonalLoop=1;jettySize=auto;html=1;" edge="1" parent="1" source="iHbo7Aoe1ZnRzZ0becoV-14" target="iHbo7Aoe1ZnRzZ0becoV-16">
          <mxGeometry relative="1" as="geometry" />
        </mxCell>
        <mxCell id="iHbo7Aoe1ZnRzZ0becoV-14" value="nó không là 1 tam giác&amp;nbsp;" style="shape=parallelogram;perimeter=parallelogramPerimeter;whiteSpace=wrap;html=1;fixedSize=1;" vertex="1" parent="1">
          <mxGeometry x="-90" y="320" width="220" height="60" as="geometry" />
        </mxCell>
        <mxCell id="iHbo7Aoe1ZnRzZ0becoV-16" value="end" style="ellipse;whiteSpace=wrap;html=1;" vertex="1" parent="1">
          <mxGeometry x="-20" y="450" width="80" height="80" as="geometry" />
        </mxCell>
        <mxCell id="iHbo7Aoe1ZnRzZ0becoV-21" value="" style="edgeStyle=orthogonalEdgeStyle;rounded=0;orthogonalLoop=1;jettySize=auto;html=1;" edge="1" parent="1" source="iHbo7Aoe1ZnRzZ0becoV-18" target="iHbo7Aoe1ZnRzZ0becoV-20">
          <mxGeometry relative="1" as="geometry" />
        </mxCell>
        <mxCell id="iHbo7Aoe1ZnRzZ0becoV-23" style="edgeStyle=orthogonalEdgeStyle;rounded=0;orthogonalLoop=1;jettySize=auto;html=1;exitX=0;exitY=0.5;exitDx=0;exitDy=0;entryX=0.5;entryY=1;entryDx=0;entryDy=0;" edge="1" parent="1" source="iHbo7Aoe1ZnRzZ0becoV-18" target="iHbo7Aoe1ZnRzZ0becoV-16">
          <mxGeometry relative="1" as="geometry" />
        </mxCell>
        <mxCell id="iHbo7Aoe1ZnRzZ0becoV-18" value="a^2=b^2+c^2&amp;nbsp; &amp;nbsp;||&lt;br&gt;b^2=a^2+c^2&amp;nbsp; ||&lt;br&gt;c^2=a^2+b^2" style="rhombus;whiteSpace=wrap;html=1;" vertex="1" parent="1">
          <mxGeometry x="220" y="480" width="200" height="140" as="geometry" />
        </mxCell>
        <mxCell id="iHbo7Aoe1ZnRzZ0becoV-24" style="edgeStyle=orthogonalEdgeStyle;rounded=0;orthogonalLoop=1;jettySize=auto;html=1;entryX=0.5;entryY=1;entryDx=0;entryDy=0;" edge="1" parent="1" source="iHbo7Aoe1ZnRzZ0becoV-20" target="iHbo7Aoe1ZnRzZ0becoV-16">
          <mxGeometry relative="1" as="geometry" />
        </mxCell>
        <mxCell id="iHbo7Aoe1ZnRzZ0becoV-20" value="nó là 1 tam giác vuông" style="shape=parallelogram;perimeter=parallelogramPerimeter;whiteSpace=wrap;html=1;fixedSize=1;" vertex="1" parent="1">
          <mxGeometry x="240" y="670" width="160" height="60" as="geometry" />
        </mxCell>
        <mxCell id="iHbo7Aoe1ZnRzZ0becoV-22" value="true&lt;br&gt;" style="text;html=1;align=center;verticalAlign=middle;resizable=0;points=[];autosize=1;strokeColor=none;fillColor=none;" vertex="1" parent="1">
          <mxGeometry x="330" y="620" width="40" height="30" as="geometry" />
        </mxCell>
        <mxCell id="iHbo7Aoe1ZnRzZ0becoV-25" value="false&lt;br&gt;" style="text;html=1;align=center;verticalAlign=middle;resizable=0;points=[];autosize=1;strokeColor=none;fillColor=none;" vertex="1" parent="1">
          <mxGeometry x="150" y="450" width="50" height="30" as="geometry" />
        </mxCell>
        <mxCell id="iHbo7Aoe1ZnRzZ0becoV-33" value="" style="edgeStyle=orthogonalEdgeStyle;rounded=0;orthogonalLoop=1;jettySize=auto;html=1;" edge="1" parent="1" source="iHbo7Aoe1ZnRzZ0becoV-27">
          <mxGeometry relative="1" as="geometry">
            <mxPoint x="650" y="670" as="targetPoint" />
          </mxGeometry>
        </mxCell>
        <mxCell id="iHbo7Aoe1ZnRzZ0becoV-38" style="edgeStyle=orthogonalEdgeStyle;rounded=0;orthogonalLoop=1;jettySize=auto;html=1;entryX=1;entryY=0.5;entryDx=0;entryDy=0;" edge="1" parent="1" source="iHbo7Aoe1ZnRzZ0becoV-27" target="iHbo7Aoe1ZnRzZ0becoV-18">
          <mxGeometry relative="1" as="geometry" />
        </mxCell>
        <mxCell id="iHbo7Aoe1ZnRzZ0becoV-27" value="a=b || b=c || a=c" style="rhombus;whiteSpace=wrap;html=1;" vertex="1" parent="1">
          <mxGeometry x="550" y="510" width="200" height="80" as="geometry" />
        </mxCell>
        <mxCell id="iHbo7Aoe1ZnRzZ0becoV-35" value="false" style="text;html=1;align=center;verticalAlign=middle;resizable=0;points=[];autosize=1;strokeColor=none;fillColor=none;" vertex="1" parent="1">
          <mxGeometry x="480" y="500" width="50" height="30" as="geometry" />
        </mxCell>
        <mxCell id="iHbo7Aoe1ZnRzZ0becoV-36" value="true&lt;br&gt;" style="text;html=1;align=center;verticalAlign=middle;resizable=0;points=[];autosize=1;strokeColor=none;fillColor=none;" vertex="1" parent="1">
          <mxGeometry x="670" y="608" width="40" height="30" as="geometry" />
        </mxCell>
        <mxCell id="iHbo7Aoe1ZnRzZ0becoV-40" style="edgeStyle=orthogonalEdgeStyle;rounded=0;orthogonalLoop=1;jettySize=auto;html=1;exitX=0.5;exitY=1;exitDx=0;exitDy=0;" edge="1" parent="1" source="iHbo7Aoe1ZnRzZ0becoV-39">
          <mxGeometry relative="1" as="geometry">
            <mxPoint x="650" y="790" as="targetPoint" />
          </mxGeometry>
        </mxCell>
        <mxCell id="iHbo7Aoe1ZnRzZ0becoV-43" style="edgeStyle=orthogonalEdgeStyle;rounded=0;orthogonalLoop=1;jettySize=auto;html=1;exitX=0;exitY=0.5;exitDx=0;exitDy=0;" edge="1" parent="1" source="iHbo7Aoe1ZnRzZ0becoV-39" target="iHbo7Aoe1ZnRzZ0becoV-44">
          <mxGeometry relative="1" as="geometry">
            <mxPoint x="540" y="710" as="targetPoint" />
          </mxGeometry>
        </mxCell>
        <mxCell id="iHbo7Aoe1ZnRzZ0becoV-39" value="a=b=c" style="rhombus;whiteSpace=wrap;html=1;" vertex="1" parent="1">
          <mxGeometry x="580" y="670" width="140" height="80" as="geometry" />
        </mxCell>
        <mxCell id="iHbo7Aoe1ZnRzZ0becoV-47" style="edgeStyle=orthogonalEdgeStyle;rounded=0;orthogonalLoop=1;jettySize=auto;html=1;entryX=0.5;entryY=1;entryDx=0;entryDy=0;" edge="1" parent="1" source="iHbo7Aoe1ZnRzZ0becoV-41" target="iHbo7Aoe1ZnRzZ0becoV-16">
          <mxGeometry relative="1" as="geometry">
            <mxPoint x="10" y="820" as="targetPoint" />
          </mxGeometry>
        </mxCell>
        <mxCell id="iHbo7Aoe1ZnRzZ0becoV-41" value="tam giác đều" style="shape=parallelogram;perimeter=parallelogramPerimeter;whiteSpace=wrap;html=1;fixedSize=1;" vertex="1" parent="1">
          <mxGeometry x="560" y="790" width="180" height="60" as="geometry" />
        </mxCell>
        <mxCell id="iHbo7Aoe1ZnRzZ0becoV-42" value="true&lt;br&gt;" style="text;html=1;align=center;verticalAlign=middle;resizable=0;points=[];autosize=1;strokeColor=none;fillColor=none;" vertex="1" parent="1">
          <mxGeometry x="670" y="748" width="40" height="30" as="geometry" />
        </mxCell>
        <mxCell id="iHbo7Aoe1ZnRzZ0becoV-50" style="edgeStyle=orthogonalEdgeStyle;rounded=0;orthogonalLoop=1;jettySize=auto;html=1;" edge="1" parent="1" source="iHbo7Aoe1ZnRzZ0becoV-44">
          <mxGeometry relative="1" as="geometry">
            <mxPoint x="490" y="830" as="targetPoint" />
          </mxGeometry>
        </mxCell>
        <mxCell id="iHbo7Aoe1ZnRzZ0becoV-44" value="tam giác cân" style="shape=parallelogram;perimeter=parallelogramPerimeter;whiteSpace=wrap;html=1;fixedSize=1;" vertex="1" parent="1">
          <mxGeometry x="430" y="680" width="120" height="60" as="geometry" />
        </mxCell>
        <mxCell id="iHbo7Aoe1ZnRzZ0becoV-45" value="false" style="text;html=1;align=center;verticalAlign=middle;resizable=0;points=[];autosize=1;strokeColor=none;fillColor=none;" vertex="1" parent="1">
          <mxGeometry x="550" y="660" width="50" height="30" as="geometry" />
        </mxCell>
      </root>
    </mxGraphModel>
  </diagram>
</mxfile>
